<svg width="30" height="30" viewBox="0 0 30 30" fill="none" xmlns="http://www.w3.org/2000/svg">
<g clip-path="url(#clip0_30_2708)">
<path fill-rule="evenodd" clip-rule="evenodd" d="M14.627 25.255C16.6496 25.2547 18.5893 24.4511 20.0195 23.0208C21.4496 21.5904 22.253 19.6506 22.253 17.628C22.253 14.82 19.711 10.444 14.627 4.5C9.542 10.444 7 14.82 7 17.628C7 19.6508 7.80356 21.5908 9.2339 23.0211C10.6642 24.4514 12.6042 25.255 14.627 25.255V25.255Z" stroke="#5EC49E" stroke-width="1.5" stroke-linejoin="round"/>
<path d="M14.627 20.6602C15.1277 20.6602 15.6235 20.5615 16.0861 20.3699C16.5487 20.1783 16.9691 19.8974 17.3232 19.5434C17.6772 19.1893 17.9581 18.769 18.1497 18.3063C18.3413 17.8437 18.44 17.3479 18.44 16.8472" stroke="#5EC49E" stroke-width="1.5" stroke-linecap="round"/>
</g>
<defs>
<clipPath id="clip0_30_2708">
<rect width="30" height="30" fill="white"/>
</clipPath>
</defs>
</svg>
