<svg width="72" height="19" viewBox="0 0 72 19" fill="none" xmlns="http://www.w3.org/2000/svg">
<path d="M7.37316 3.42006V3.21178H11.2888V1.33725H1.06223V3.21178H5.04041V3.44089C5.04041 5.94027 3.44705 8.38757 0.416562 9.37691L1.58294 11.2098C3.8532 10.4496 5.43614 8.87703 6.26927 6.89836C7.09198 8.59585 8.5916 9.93927 10.7057 10.6058L11.8095 8.79372C8.86237 7.8877 7.37316 5.72157 7.37316 3.42006ZM2.97842 15.2296C2.97842 17.4999 5.41531 18.8329 9.35183 18.8329C13.2571 18.8329 15.6523 17.4999 15.6627 15.2296C15.6523 12.9802 13.2571 11.668 9.35183 11.668C5.41531 11.668 2.97842 12.9802 2.97842 15.2296ZM5.29034 15.2296C5.29034 14.0841 6.76914 13.48 9.35183 13.48C11.9241 13.48 13.3717 14.0841 13.3717 15.2296C13.3717 16.396 11.9241 17.0104 9.35183 17.0208C6.76914 17.0104 5.29034 16.396 5.29034 15.2296ZM13.1634 11.2514H15.4753V6.44014H18.0996V4.54478H15.4753V0.0250788H13.1634V11.2514ZM33.804 0.0250788H31.4921V18.8537H33.804V9.1478H36.6992V7.18995H33.804V0.0250788ZM19.7242 14.4381H28.7636V1.56636H26.4517V6.27352H22.0153V1.56636H19.7242V14.4381ZM22.0153 12.5428V8.08556H26.4517V12.5428H22.0153ZM52.5494 1.17063H39.511V3.04516H50.2374C50.2374 4.72182 50.2166 6.64842 49.6959 9.21028H37.4906V11.0848H44.843V18.8745H47.1757V11.0848H54.653V9.21028H52.0495C52.5389 6.54428 52.5389 4.61768 52.5494 2.8577V1.17063ZM71.6279 0.0250788H69.3368V18.8537H71.6279V0.0250788ZM57.0066 14.1257H58.6312C61.5575 14.1361 64.6297 13.9174 67.9413 13.2301L67.6497 11.2931C64.7442 11.8763 61.9324 12.1054 59.2977 12.147V1.85795H57.0066V14.1257Z" fill="black"/>
</svg>
